<?xml version="1.0" standalone="no"?><!DOCTYPE svg PUBLIC "-//W3C//DTD SVG 1.1//EN" "http://www.w3.org/Graphics/SVG/1.1/DTD/svg11.dtd"><svg t="1577764280269" class="icon" viewBox="0 0 1024 1024" version="1.1" xmlns="http://www.w3.org/2000/svg" p-id="1664" width="32" height="32" xmlns:xlink="http://www.w3.org/1999/xlink"><defs><style type="text/css"></style></defs><path d="M83.2 505.6l19.2-70.4c9.6-38.4 35.2-70.4 70.4-86.4l329.6-166.4s134.4-51.2 256 0 198.4 185.6 211.2 227.2c12.8 41.6 19.2 201.6-19.2 227.2-41.6 28.8-217.6 134.4-259.2 140.8S294.4 841.6 224 825.6s-121.6-115.2-124.8-124.8c-3.2-6.4-12.8-96-19.2-140.8-3.2-19.2 0-38.4 3.2-54.4z" fill="#FBDEB1" p-id="1665"></path><path d="M83.2 505.6l19.2-70.4c9.6-38.4 35.2-70.4 70.4-86.4l329.6-166.4s134.4-51.2 256 0 198.4 185.6 211.2 227.2c12.8 41.6 19.2 201.6-19.2 227.2-41.6 28.8-217.6 134.4-259.2 140.8S294.4 841.6 224 825.6s-121.6-115.2-124.8-124.8c-3.2-6.4-12.8-96-19.2-140.8-3.2-19.2 0-38.4 3.2-54.4z" fill="#FCFBD9" p-id="1666"></path><path d="M259.2 844.8c-16 0-28.8 0-38.4-3.2-76.8-16-131.2-121.6-137.6-134.4 0-3.2-3.2-9.6-19.2-147.2-3.2-19.2 0-41.6 3.2-60.8l19.2-70.4c12.8-41.6 41.6-76.8 80-96l329.6-166.4c6.4-3.2 144-54.4 272 0s208 192 220.8 236.8c12.8 35.2 25.6 211.2-25.6 246.4-25.6 16-217.6 137.6-265.6 144-6.4 0-22.4 3.2-44.8 6.4-153.6 22.4-313.6 44.8-393.6 44.8zM640 176c-73.6 0-131.2 22.4-131.2 22.4L182.4 361.6c-32 16-54.4 44.8-64 76.8l-19.2 70.4c-3.2 16-6.4 32-3.2 48 9.6 92.8 16 131.2 19.2 137.6 3.2 3.2 51.2 102.4 115.2 115.2 54.4 12.8 320-28.8 419.2-41.6 22.4-3.2 38.4-6.4 44.8-6.4 35.2-3.2 201.6-105.6 252.8-137.6 28.8-19.2 28.8-166.4 12.8-211.2-12.8-38.4-89.6-169.6-204.8-217.6-38.4-16-76.8-19.2-115.2-19.2z" fill="#9E79AE" p-id="1667"></path></svg>